<svg width="67" height="107" viewBox="0 0 67 107" fill="none" xmlns="http://www.w3.org/2000/svg">
<rect x="0.667969" y="17" width="66.3158" height="90" rx="33.1579" fill="#004BA5"/>
<ellipse cx="33.8259" cy="50.1579" rx="33.1579" ry="33.1579" fill="#0097F0"/>
<ellipse cx="33.8259" cy="33.2634" rx="33.1579" ry="33.1579" fill="white"/>
<path d="M48.3337 38.1694V44.2632H19.4469V39.0483L33.3044 24.0776C34.7497 22.437 35.8923 21.0112 36.7321 19.8003C37.5719 18.5894 38.1676 17.4956 38.5192 16.519C38.8903 15.5229 39.0759 14.5757 39.0759 13.6772C39.0759 12.3687 38.8415 11.2261 38.3727 10.2495C37.904 9.25342 37.2204 8.48193 36.3219 7.93506C35.443 7.38818 34.3591 7.11475 33.07 7.11475C31.6442 7.11475 30.4235 7.44678 29.4079 8.11084C28.4118 8.75537 27.6501 9.65381 27.1227 10.8062C26.6149 11.9585 26.361 13.2769 26.361 14.7612H18.5973C18.5973 12.2417 19.1833 9.94678 20.3551 7.87646C21.527 5.78662 23.2067 4.1167 25.3942 2.8667C27.5817 1.6167 30.1794 0.991699 33.1872 0.991699C36.1169 0.991699 38.5973 1.47998 40.6286 2.45654C42.6598 3.41357 44.2028 4.78076 45.2575 6.55811C46.3122 8.33545 46.8395 10.4546 46.8395 12.9155C46.8395 14.2827 46.6149 15.6304 46.1657 16.9585C45.7165 18.2866 45.0817 19.605 44.2614 20.9136C43.4606 22.2026 42.5036 23.5112 41.3903 24.8394C40.277 26.1675 39.0368 27.5249 37.6696 28.9116L29.3493 38.1694H48.3337Z" fill="#0097F0"/>
</svg>
