<svg width="67" height="107" viewBox="0 0 67 107" fill="none" xmlns="http://www.w3.org/2000/svg">
<rect x="0.332031" y="17" width="66.3158" height="90" rx="33.1579" fill="#004BA5"/>
<ellipse cx="33.4899" cy="50.1579" rx="33.1579" ry="33.1579" fill="#0097F0"/>
<ellipse cx="33.4899" cy="33.2634" rx="33.1579" ry="33.1579" fill="white"/>
<path d="M28.2614 19.5073H32.6266C34.1696 19.5073 35.4391 19.2437 36.4352 18.7163C37.4509 18.1694 38.2028 17.4272 38.6911 16.4897C39.1989 15.5327 39.4528 14.4292 39.4528 13.1792C39.4528 11.9487 39.2282 10.8843 38.779 9.98584C38.3298 9.06787 37.6462 8.36475 36.7282 7.87646C35.8298 7.36865 34.6774 7.11475 33.2712 7.11475C32.1384 7.11475 31.0934 7.33936 30.1364 7.78857C29.1989 8.23779 28.4469 8.88232 27.8805 9.72217C27.3337 10.5425 27.0602 11.5288 27.0602 12.6812H19.2966C19.2966 10.3765 19.902 8.35498 21.113 6.6167C22.3434 4.85889 24.0036 3.48193 26.0934 2.48584C28.1833 1.48975 30.5173 0.991699 33.0954 0.991699C35.9079 0.991699 38.3688 1.46045 40.4782 2.39795C42.6071 3.31592 44.2575 4.67334 45.4294 6.47021C46.6208 8.26709 47.2165 10.4937 47.2165 13.1499C47.2165 14.4194 46.9137 15.689 46.3083 16.9585C45.7223 18.2085 44.8532 19.3413 43.7009 20.3569C42.568 21.353 41.1716 22.1636 39.5114 22.7886C37.8708 23.394 35.986 23.6968 33.8571 23.6968H28.2614V19.5073ZM28.2614 25.4839V21.353H33.8571C36.2594 21.353 38.3395 21.6362 40.0973 22.2026C41.8747 22.7495 43.3395 23.5308 44.4919 24.5464C45.6442 25.5425 46.4938 26.7046 47.0407 28.0327C47.6071 29.3608 47.8903 30.7866 47.8903 32.3101C47.8903 34.3022 47.5192 36.0796 46.777 37.6421C46.0348 39.1851 44.9899 40.4937 43.6423 41.5679C42.3141 42.6421 40.7516 43.4624 38.9548 44.0288C37.1579 44.5757 35.2145 44.8491 33.1247 44.8491C31.3083 44.8491 29.5407 44.605 27.8219 44.1167C26.1227 43.6089 24.5895 42.8569 23.2223 41.8608C21.8551 40.8452 20.7712 39.5757 19.9704 38.0522C19.1696 36.5093 18.7692 34.7222 18.7692 32.6909H26.5329C26.5329 33.8628 26.8161 34.9077 27.3825 35.8257C27.9684 36.7437 28.7692 37.4663 29.7848 37.9937C30.82 38.5015 31.9821 38.7554 33.2712 38.7554C34.6969 38.7554 35.9176 38.5015 36.9333 37.9937C37.9684 37.4663 38.7594 36.7241 39.3063 35.7671C39.8532 34.7905 40.1266 33.6284 40.1266 32.2808C40.1266 30.6792 39.8239 29.3804 39.2184 28.3843C38.613 27.3882 37.7438 26.6558 36.611 26.187C35.4977 25.7183 34.1696 25.4839 32.6266 25.4839H28.2614Z" fill="#0097F0"/>
</svg>
