<svg width="30" height="30" viewBox="0 0 30 30" fill="none" xmlns="http://www.w3.org/2000/svg">
<path d="M10.3893 24.3088C10.1298 24.0493 10 23.742 10 23.3869C10 23.0326 10.1298 22.7257 10.3893 22.4661L17.9934 14.862L10.3633 7.23193C10.1211 6.9897 10 6.68692 10 6.32359C10 5.96025 10.1298 5.64882 10.3893 5.38929C10.6488 5.12976 10.9561 5 11.3111 5C11.6655 5 11.9724 5.12976 12.2319 5.38929L20.952 14.1353C21.0558 14.2391 21.1295 14.3516 21.1731 14.4727C21.216 14.5938 21.2375 14.7236 21.2375 14.862C21.2375 15.0004 21.216 15.1302 21.1731 15.2513C21.1295 15.3724 21.0558 15.4849 20.952 15.5887L12.206 24.3347C11.9638 24.577 11.6655 24.6981 11.3111 24.6981C10.9561 24.6981 10.6488 24.5683 10.3893 24.3088Z" fill="white"/>
</svg>
