<svg width="147" height="30" viewBox="0 0 147 30" fill="none" xmlns="http://www.w3.org/2000/svg">
<g clip-path="url(#clip0_69_5092)">
<path d="M75.5175 4.13794H72.4141V20.6897H75.5175V4.13794Z" fill="#939598"/>
<path d="M26.8949 7.24139V4.13794H18.6191H15.5156V7.24139V17.5862V20.6897H18.6191H26.8949V17.5862H18.6191V14.4828H25.8605V11.3793H18.6191V7.24139H26.8949Z" fill="#939598"/>
<path d="M109.657 7.24139V4.13794H101.381H98.2773V7.24139V17.5862V20.6897H101.381H109.657V17.5862H101.381V14.4828H108.622V11.3793H101.381V7.24139H109.657Z" fill="#0097F0"/>
<path d="M94.1397 0H88.9673H85.8638H80.6914V3.10345H85.8638V16.5517H88.9673V3.10345H94.1397V0Z" fill="#0097F0"/>
<path d="M80.6445 21.7664L80.6445 24.8699L94.0928 24.8699L94.0928 21.7664L80.6445 21.7664Z" fill="#0097F0"/>
<path d="M80.6875 26.8975L80.6875 30.001L94.1358 30.001L94.1358 26.8975L80.6875 26.8975Z" fill="#004BA5"/>
<path d="M143.792 4.13794V11.3793H136.654V4.13794H133.551V11.3793V14.4828V20.6897H136.654V14.4828H143.792V20.6897H146.896V14.4828V11.3793V4.13794H143.792Z" fill="#0097F0"/>
<path d="M3.10345 17.5862V4.13794H0V20.6897H3.10345H11.3793V17.5862H3.10345Z" fill="#939598"/>
<path d="M64.0344 4.13794H63.1033L58.4481 10.9655L53.8964 4.24139V4.13794H50.793V20.6897H53.8964V9.6207L58.4481 16.3448L60.3102 13.6552L64.0344 8.17242V20.6897H67.1378V4.13794H64.0344Z" fill="#939598"/>
<path d="M42.4151 4.13794V13.9655C42.4151 15.931 40.76 17.5862 38.7944 17.5862C36.8289 17.5862 35.1738 15.931 35.1738 13.9655V4.13794H32.0703V14.4828C32.3807 18 35.2772 20.6897 38.7944 20.6897C42.3117 20.6897 45.2082 18 45.5186 14.4828V4.13794H42.4151Z" fill="#939598"/>
<path d="M127.242 15.5172C126.311 16.7586 124.759 17.5862 123.104 17.5862C120.207 17.5862 117.932 15.3104 117.932 12.4138C117.932 9.51725 120.207 7.24139 123.104 7.24139C124.759 7.24139 126.311 8.06897 127.242 9.31035L129.414 7.13794C127.966 5.27587 125.69 4.13794 123.104 4.13794C118.552 4.13794 114.828 7.86208 114.828 12.4138C114.828 16.9655 118.552 20.6897 123.104 20.6897C125.69 20.6897 127.966 19.5517 129.414 17.6897L127.242 15.5172Z" fill="#0097F0"/>
</g>
<defs>
<clipPath id="clip0_69_5092">
<rect width="146.897" height="30" fill="white"/>
</clipPath>
</defs>
</svg>
