<svg width="172" height="39" viewBox="0 0 172 39" fill="none" xmlns="http://www.w3.org/2000/svg">
<g clip-path="url(#clip0_123_2027)">
<path d="M88.1051 8.82715H84.4844V28.1375H88.1051V8.82715Z" fill="#BDDAFC"/>
<path d="M31.3774 12.4478V8.82715H21.7223H18.1016V12.4478V24.5168V28.1375H21.7223H31.3774V24.5168H21.7223V20.8961H30.1705V17.2754H21.7223V12.4478H31.3774Z" fill="#BDDAFC"/>
<path d="M127.932 12.4478V8.82715H118.277H114.656V12.4478V24.5168V28.1375H118.277H127.932V24.5168H118.277V20.8961H126.725V17.2754H118.277V12.4478H127.932Z" fill="#0097F0"/>
<path d="M109.826 4H103.792H100.171H94.1367V7.62069H100.171V23.3103H103.792V7.62069H109.826V4Z" fill="#0097F0"/>
<path d="M94.0859 29.394L94.0859 33.0146L109.776 33.0146L109.776 29.394L94.0859 29.394Z" fill="#0097F0"/>
<path d="M94.1328 35.3803L94.1328 39.001L109.822 39.001L109.822 35.3803L94.1328 35.3803Z" fill="#063266"/>
<path d="M167.757 8.82715V17.2754H159.429V8.82715H155.809V17.2754V20.8961V28.1375H159.429V20.8961H167.757V28.1375H171.378V20.8961V17.2754V8.82715H167.757Z" fill="#0097F0"/>
<path d="M3.62069 24.5168V8.82715H0V28.1375H3.62069H13.2759V24.5168H3.62069Z" fill="#BDDAFC"/>
<path d="M74.7061 8.82715H73.6199L68.1888 16.7927L62.8785 8.94784V8.82715H59.2578V28.1375H62.8785V15.2237L68.1888 23.0685L70.3613 19.9306L74.7061 13.534V28.1375H78.3268V8.82715H74.7061Z" fill="#BDDAFC"/>
<path d="M49.483 8.82715V20.2927C49.483 22.5858 47.552 24.5168 45.2589 24.5168C42.9658 24.5168 41.0348 22.5858 41.0348 20.2927V8.82715H37.4141V20.8961C37.7761 24.9996 41.1554 28.1375 45.2589 28.1375C49.3623 28.1375 52.7416 24.9996 53.1037 20.8961V8.82715H49.483Z" fill="#BDDAFC"/>
<path d="M148.448 22.103C147.361 23.5513 145.551 24.5168 143.62 24.5168C140.241 24.5168 137.586 21.8616 137.586 18.4823C137.586 15.103 140.241 12.4478 143.62 12.4478C145.551 12.4478 147.361 13.4134 148.448 14.8616L150.982 12.3271C149.292 10.1547 146.637 8.82715 143.62 8.82715C138.31 8.82715 133.965 13.172 133.965 18.4823C133.965 23.7927 138.31 28.1375 143.62 28.1375C146.637 28.1375 149.292 26.8099 150.982 24.6375L148.448 22.103Z" fill="#0097F0"/>
</g>
<defs>
<clipPath id="clip0_123_2027">
<rect width="171.379" height="35" fill="white" transform="translate(0 4)"/>
</clipPath>
</defs>
</svg>
