<svg width="20" height="20" viewBox="0 0 20 20" fill="none" xmlns="http://www.w3.org/2000/svg">
<path d="M11.9384 10.4906C12.4739 9.99111 12.8207 9.30483 12.8207 8.53658C12.8207 6.99564 11.474 5.75366 9.85016 5.75366C8.22633 5.75366 6.87962 6.99564 6.87962 8.53658C6.87962 9.30475 7.22632 9.99097 7.76172 10.4904C7.18724 10.8093 6.70286 11.2558 6.35302 11.7929C5.96154 12.3939 5.75391 13.0847 5.75391 13.7899L5.75391 13.9462H5.91016H7.03587H7.19212V13.7899C7.19212 12.4294 8.36532 11.3195 9.85016 11.3195C11.335 11.3195 12.5082 12.4294 12.5082 13.7899V13.9462H12.6644H13.7902H13.9464V13.7899C13.9464 12.385 13.1388 11.1584 11.9384 10.4906ZM9.85016 7.11683C10.713 7.11683 11.3825 7.7566 11.3825 8.53658C11.3825 9.31656 10.713 9.95633 9.85016 9.95633C8.98728 9.95633 8.31783 9.31656 8.31783 8.53658C8.31783 7.7566 8.98728 7.11683 9.85016 7.11683Z" fill="#0097F0" stroke="#0097F0" stroke-width="0.3125"/>
<path d="M19.7 9.85C19.7 15.29 15.29 19.7 9.85 19.7C4.41 19.7 0 15.29 0 9.85C0 4.41 4.41 0 9.85 0C15.29 0 19.7 4.41 19.7 9.85ZM2.14724 9.85C2.14724 14.1041 5.59588 17.5528 9.85 17.5528C14.1041 17.5528 17.5528 14.1041 17.5528 9.85C17.5528 5.59588 14.1041 2.14724 9.85 2.14724C5.59588 2.14724 2.14724 5.59588 2.14724 9.85Z" fill="#0097F0"/>
</svg>
